<svg width="80" height="16" viewBox="0 0 80 16" fill="none" xmlns="http://www.w3.org/2000/svg">
<path d="M14.1891 5.51719L10.2219 4.94063L8.44847 1.34532C8.40003 1.24688 8.32034 1.16719 8.2219 1.11875C7.97503 0.996878 7.67503 1.09844 7.55159 1.34532L5.77815 4.94063L1.81097 5.51719C1.70159 5.53282 1.60159 5.58438 1.52503 5.6625C1.43247 5.75764 1.38146 5.88563 1.38322 6.01835C1.38498 6.15107 1.43936 6.27767 1.5344 6.37032L4.40472 9.16875L3.72659 13.1203C3.71069 13.2122 3.72086 13.3068 3.75595 13.3932C3.79105 13.4796 3.84966 13.5545 3.92514 13.6093C4.00062 13.6642 4.08995 13.6967 4.183 13.7034C4.27605 13.71 4.3691 13.6904 4.45159 13.6469L8.00003 11.7813L11.5485 13.6469C11.6453 13.6984 11.7578 13.7156 11.8657 13.6969C12.1375 13.65 12.3203 13.3922 12.2735 13.1203L11.5953 9.16875L14.4657 6.37032C14.5438 6.29375 14.5953 6.19375 14.611 6.08438C14.6532 5.81094 14.4625 5.55782 14.1891 5.51719Z" fill="#E7C825"/>
<path d="M46.1891 5.51719L42.2219 4.94063L40.4485 1.34532C40.4 1.24688 40.3203 1.16719 40.2219 1.11875C39.975 0.996878 39.675 1.09844 39.5516 1.34532L37.7782 4.94063L33.811 5.51719C33.7016 5.53282 33.6016 5.58438 33.525 5.6625C33.4325 5.75764 33.3815 5.88563 33.3832 6.01835C33.385 6.15107 33.4394 6.27767 33.5344 6.37032L36.4047 9.16875L35.7266 13.1203C35.7107 13.2122 35.7209 13.3068 35.756 13.3932C35.791 13.4796 35.8497 13.5545 35.9251 13.6093C36.0006 13.6642 36.0899 13.6967 36.183 13.7034C36.276 13.71 36.3691 13.6904 36.4516 13.6469L40 11.7813L43.5485 13.6469C43.6453 13.6984 43.7578 13.7156 43.8657 13.6969C44.1375 13.65 44.3203 13.3922 44.2735 13.1203L43.5953 9.16875L46.4657 6.37032C46.5438 6.29375 46.5953 6.19375 46.611 6.08438C46.6532 5.81094 46.4625 5.55782 46.1891 5.51719Z" fill="#E7C825"/>
<path d="M30.1891 5.51719L26.2219 4.94063L24.4485 1.34532C24.4 1.24688 24.3203 1.16719 24.2219 1.11875C23.975 0.996878 23.675 1.09844 23.5516 1.34532L21.7782 4.94063L17.811 5.51719C17.7016 5.53282 17.6016 5.58438 17.525 5.6625C17.4325 5.75764 17.3815 5.88563 17.3832 6.01835C17.385 6.15107 17.4394 6.27767 17.5344 6.37032L20.4047 9.16875L19.7266 13.1203C19.7107 13.2122 19.7209 13.3068 19.756 13.3932C19.791 13.4796 19.8497 13.5545 19.9251 13.6093C20.0006 13.6642 20.0899 13.6967 20.183 13.7034C20.276 13.71 20.3691 13.6904 20.4516 13.6469L24 11.7813L27.5485 13.6469C27.6453 13.6984 27.7578 13.7156 27.8657 13.6969C28.1375 13.65 28.3203 13.3922 28.2735 13.1203L27.5953 9.16875L30.4657 6.37032C30.5438 6.29375 30.5953 6.19375 30.611 6.08438C30.6532 5.81094 30.4625 5.55782 30.1891 5.51719Z" fill="#E7C825"/>
<path d="M62.1891 5.51719L58.2219 4.94063L56.4485 1.34532C56.4 1.24688 56.3203 1.16719 56.2219 1.11875C55.975 0.996878 55.675 1.09844 55.5516 1.34532L53.7782 4.94063L49.811 5.51719C49.7016 5.53282 49.6016 5.58438 49.525 5.6625C49.4325 5.75764 49.3815 5.88563 49.3832 6.01835C49.385 6.15107 49.4394 6.27767 49.5344 6.37032L52.4047 9.16875L51.7266 13.1203C51.7107 13.2122 51.7209 13.3068 51.756 13.3932C51.791 13.4796 51.8497 13.5545 51.9251 13.6093C52.0006 13.6642 52.0899 13.6967 52.183 13.7034C52.276 13.71 52.3691 13.6904 52.4516 13.6469L56 11.7813L59.5485 13.6469C59.6453 13.6984 59.7578 13.7156 59.8657 13.6969C60.1375 13.65 60.3203 13.3922 60.2735 13.1203L59.5953 9.16875L62.4657 6.37032C62.5438 6.29375 62.5953 6.19375 62.611 6.08438C62.6532 5.81094 62.4625 5.55782 62.1891 5.51719Z" fill="#E7C825"/>
<path d="M78.1891 5.51719L74.2219 4.94063L72.4485 1.34532C72.4 1.24688 72.3203 1.16719 72.2219 1.11875C71.975 0.996878 71.675 1.09844 71.5516 1.34532L69.7782 4.94063L65.811 5.51719C65.7016 5.53282 65.6016 5.58438 65.525 5.6625C65.4325 5.75764 65.3815 5.88563 65.3832 6.01835C65.385 6.15107 65.4394 6.27767 65.5344 6.37032L68.4047 9.16875L67.7266 13.1203C67.7107 13.2122 67.7209 13.3068 67.756 13.3932C67.791 13.4796 67.8497 13.5545 67.9251 13.6093C68.0006 13.6642 68.0899 13.6967 68.183 13.7034C68.276 13.71 68.3691 13.6904 68.4516 13.6469L72 11.7813L75.5485 13.6469C75.6453 13.6984 75.7578 13.7156 75.8657 13.6969C76.1375 13.65 76.3203 13.3922 76.2735 13.1203L75.5953 9.16875L78.4657 6.37032C78.5438 6.29375 78.5953 6.19375 78.611 6.08438C78.6532 5.81094 78.4625 5.55782 78.1891 5.51719Z" fill="#E7C825"/>
</svg>
